<?xml version="1.0" standalone="no"?><!DOCTYPE svg PUBLIC "-//W3C//DTD SVG 1.1//EN" "http://www.w3.org/Graphics/SVG/1.1/DTD/svg11.dtd"><svg t="1710476682571" class="icon" viewBox="0 0 1024 1024" version="1.1" xmlns="http://www.w3.org/2000/svg" p-id="3117" xmlns:xlink="http://www.w3.org/1999/xlink" width="200" height="200"><path d="M839.68 0H184.32C135.68 0 96 39.68 96 88.32V870.4c1.28 84.48 70.4 153.6 154.88 153.6h675.84v-40.96H250.88c-62.72 0-113.92-51.2-113.92-113.92 0-51.2 34.56-96 81.92-108.8h8.96c2.56 0 5.12-1.28 7.68-3.84 5.12 0 10.24-1.28 14.08-1.28h675.84V88.32C928 39.68 888.32 0 839.68 0zM138.24 764.16v-3.84h3.84l-3.84 3.84z m112.64-49.92h-12.8V40.96h601.6c25.6 0 46.08 20.48 46.08 46.08v625.92H250.88z" fill="#e6e6e6" p-id="3118"></path><path d="M207.36 856.32h719.36v28.16H207.36zM496.64 473.6c3.84 11.52 12.8 28.16 17.92 37.12-79.36 64-92.16 75.52-99.84 85.76-5.12-7.68-17.92-23.04-25.6-29.44 10.24-8.96 25.6-26.88 25.6-51.2V360.96h-60.16v-42.24h102.4v185.6l39.68-30.72z m-44.8-189.44c-14.08-20.48-46.08-51.2-70.4-72.96l28.16-25.6c24.32 20.48 57.6 49.92 72.96 69.12l-30.72 29.44z m271.36 78.08v47.36h56.32v39.68H723.2V556.8c0 23.04-5.12 34.56-20.48 42.24-15.36 6.4-39.68 7.68-74.24 7.68-1.28-12.8-7.68-30.72-14.08-42.24 24.32 1.28 49.92 1.28 56.32 1.28 7.68 0 10.24-2.56 10.24-8.96V450.56h-179.2V409.6h179.2v-47.36H491.52v-39.68h126.72v-51.2h-96v-39.68h96v-55.04h42.24v55.04h99.84v39.68h-99.84v51.2h121.6v39.68H723.2z m-154.88 90.88c20.48 24.32 44.8 57.6 53.76 80.64l-37.12 20.48c-8.96-23.04-30.72-57.6-51.2-81.92l34.56-19.2z" fill="#e6e6e6" p-id="3119"></path></svg>