<?xml version="1.0" standalone="no"?><!DOCTYPE svg PUBLIC "-//W3C//DTD SVG 1.1//EN" "http://www.w3.org/Graphics/SVG/1.1/DTD/svg11.dtd"><svg t="1711460434270" class="icon" viewBox="0 0 1024 1024" version="1.1" xmlns="http://www.w3.org/2000/svg" p-id="1550" xmlns:xlink="http://www.w3.org/1999/xlink" width="200" height="200"><path d="M529.472 1024H366.528A46.592 46.592 0 0 1 320 977.472V46.528c0-25.6 20.864-46.528 46.528-46.528h162.944c25.6 0 46.528 20.864 46.528 46.528v930.944a46.592 46.592 0 0 1-46.528 46.528z m-320 0H46.528A46.592 46.592 0 0 1 0 977.472V46.528C0 20.928 20.864 0 46.528 0h162.944c25.6 0 46.528 20.864 46.528 46.528v930.944a46.592 46.592 0 0 1-46.528 46.528z m777.6-26.688l-152.128 25.984c-23.936 4.096-46.72-10.24-50.624-32l-143.744-853.76c-3.968-21.76 12.352-42.752 36.288-46.848l152.192-25.984c23.936-4.096 46.72 10.24 50.624 32l143.744 853.76c3.968 21.76-12.352 42.752-36.288 46.848zM204.8 51.2H51.2v921.6h153.6V51.2z m320 921.6V51.2H371.2v921.6h153.6z m306.24-856.512l-138.112 23.616 140.032 831.808 138.112-23.616-140.032-831.808zM76.8 192h102.4v38.4H76.8V192z m0 678.4V832h102.4v38.4H76.8z m0-139.264h102.4v38.4H76.8v-38.4zM396.8 192h102.4v38.4H396.8V192z m0 678.4V832h102.4v38.4H396.8z m0-139.264h102.4v38.4H396.8v-38.4z m324.48-521.344L822.144 192l6.656 37.76-100.864 17.856-6.656-37.824z m117.76 668.096l-6.656-37.824 100.864-17.792 6.656 37.824-100.8 17.792z m-24.128-137.152l100.8-17.792 6.72 37.76-100.864 17.856-6.656-37.824z" fill="#FFFFFF" p-id="1551"></path></svg>