<?xml version="1.0" standalone="no"?><!DOCTYPE svg PUBLIC "-//W3C//DTD SVG 1.1//EN" "http://www.w3.org/Graphics/SVG/1.1/DTD/svg11.dtd"><svg t="1711460123728" class="icon" viewBox="0 0 1024 1024" version="1.1" xmlns="http://www.w3.org/2000/svg" p-id="8161" xmlns:xlink="http://www.w3.org/1999/xlink" width="200" height="200"><path d="M33.792 314.368c-14.336 0-26.112-11.776-26.112-26.112s11.776-26.112 26.112-26.112h444.928c14.336 0 26.112 11.776 26.112 26.112s-11.776 26.112-26.112 26.112h-444.928zM33.792 647.168c-14.336 0-26.112-11.776-26.112-26.112s11.776-26.112 26.112-26.112h129.536c15.872 0 28.16 11.776 28.16 26.112s-12.8 26.112-28.16 26.112h-129.536zM953.344 140.8c-77.312-85.504-177.152-96.256-181.248-96.256h-2.56c-12.8 0-23.552 9.216-25.6 21.504l-45.056 218.112-49.664 274.944-10.24-14.848c-1.024-1.536-2.048-2.56-3.072-4.096-39.424-39.936-96.256-64-159.232-67.584-6.144-0.512-11.776-0.512-17.92-0.512-115.2 0-211.968 71.168-220.672 161.792-3.584 39.424 9.728 79.36 37.888 112.128 38.4 45.056 100.352 73.216 169.472 76.8 3.584 0 7.168 0.512 11.264 0.512 76.288 0 156.672-44.032 200.192-109.568 10.752-16.384 25.088-41.472 30.72-67.072l59.392-327.68 7.168 1.536c51.712 11.264 145.92 40.96 200.704 117.248 5.12 7.168 12.8 10.752 21.504 10.752h2.048c9.216-0.512 17.408-6.144 21.504-14.336 33.28-72.192 19.456-221.184-46.592-293.376z m-340.48 543.744c-33.792 50.688-97.792 86.016-156.672 86.016h-7.68c-54.272-3.072-103.424-25.088-132.608-58.88-13.312-15.36-28.672-40.96-25.6-73.216 6.144-64.512 80.896-114.688 169.984-114.688 4.608 0 9.216 0 13.824 0.512 49.664 2.56 99.84 22.528 130.048 52.224 7.68 7.68 36.352 32.256 31.744 56.832l-0.512 3.072c-2.56 12.288-10.752 30.208-22.528 48.128z m109.056-379.904c1.536 0.512-1.536 0 0 0z m242.176 48.128l-1.024 14.848-11.264-9.728c-67.072-58.88-151.552-81.92-195.584-90.624l34.304-166.4 7.68 2.56c31.744 9.728 77.312 29.696 115.712 72.192 37.376 40.448 53.248 119.808 50.176 177.152zM33.792 979.968c-14.336 0-26.112-11.776-26.112-26.112s11.776-26.112 26.112-26.112h778.752c14.336 0 26.112 11.776 26.112 26.112s-11.776 26.112-26.112 26.112h-778.752z" p-id="8162"></path></svg>